<?xml version="1.0" encoding="UTF-8"?><svg width="200" height="200" id="a" xmlns="http://www.w3.org/2000/svg" viewBox="0 0 408.95 408.95"><path d="m408.95,269.99c-1.31,3.85-2.4,7.8-3.99,11.54-2.2,5.16-6.72,7.1-11.27,5.25-4.31-1.75-6.44-6.3-4.46-11.27,2.48-6.24,2.85-12.63,2.75-19.17-.15-9.57.26-19.19-.5-28.71-1.05-13.17-11.06-22.26-24.26-23.06-1.06-.06-2.13-.06-3.19-.06-106.3,0-212.61,0-318.91,0-13.77,0-23.39,6.73-26.86,18.76-.4,1.39-.73,2.86-.74,4.29-.13,12.5-.84,25.04-.09,37.49.95,15.64,11.6,24.65,27.69,24.68,27.14.06,54.28.02,81.42.02,18.89,0,37.78.02,56.68-.02,3.96,0,7.41.8,9.42,4.64,2.36,4.49.19,10.13-4.71,11.67-1.85.58-3.92.67-5.89.67-45.77.03-91.54.01-137.3.04-13.52,0-23.33,7.08-26.62,19.11-.35,1.27-.59,2.61-.6,3.92-.12,12.5-.84,25.04-.09,37.49.94,15.64,11.6,24.67,27.68,24.69,34.99.05,69.98.02,104.97.02,1.46,0,2.93-.04,4.39.08,4.36.34,7.03,2.52,8.04,6.46.96,3.76-.56,7.1-4.25,9.39-.54.34-1.07.7-1.61,1.05H36.87c-.32-.21-.62-.57-.97-.61C16.33,405.61-.79,386.9.07,364.11c.39-10.23-.14-20.5.16-30.73.13-4.6.86-9.27,2.04-13.72,2.33-8.77,7.89-15.52,14.73-21.18-.2-.43-.26-.72-.44-.89-.47-.47-.99-.89-1.49-1.33-9.6-8.46-14.7-19.09-14.89-31.88-.17-11.57-.18-23.16,0-34.73.2-12.49,5.16-22.92,14.44-31.27.85-.76,1.88-1.31,3.1-2.14C3.93,185.35-.68,171.59.08,155.45c.35-7.44.35-14.91,0-22.35-.56-11.76,2.88-22.17,9.09-32.03,16.44-26.1,32.76-52.27,48.9-78.55C67.39,7.34,80.63-.02,98.43.01,169.07.12,239.72.14,310.37,0c17.96-.04,31.34,7.26,40.73,22.58,13.75,22.45,27.79,44.72,41.68,67.07,6.43,10.34,13.6,20.32,16.17,32.59v45.52c-1.12,3.48-1.64,7.32-3.47,10.38-3.8,6.38-8.29,12.35-12.06,17.86,3.75,5.41,8.17,11.13,11.8,17.31,1.94,3.3,2.53,7.41,3.72,11.15v45.52ZM204.5,102.28c-52.81,0-105.63,0-158.44.01-2.26,0-4.54.02-6.76.34-11.88,1.71-20.95,10.58-21.65,22.56-.73,12.46-.51,24.99-.28,37.48.06,3.47,1.07,7.17,2.59,10.31,5.18,10.67,14.36,14.56,25.79,14.56,105.89-.04,211.79-.02,317.68-.02.8,0,1.6.02,2.39-.02,13.55-.67,24.7-9.37,25.45-21.35.84-13.37.35-26.83.36-40.26,0-1.57-.33-3.18-.75-4.7-3.32-11.9-13.03-18.9-26.34-18.91-53.35-.03-106.69-.01-160.04-.01Zm-165.29-17.09h330.59c-.87-1.47-1.51-2.61-2.2-3.72-10.32-16.6-20.82-33.09-30.9-49.83-6.09-10.12-14.64-14.73-26.37-14.67-34.32.17-68.65.06-102.97.06-36.45,0-72.91.06-109.36-.03-11.08-.03-19.35,4.41-25.16,13.94-9.41,15.44-19.07,30.73-28.61,46.08-1.6,2.58-3.18,5.18-5.02,8.17Z" stroke-width="0"/><path d="m207.74,408.95c-8.22-1.9-15.8-4.88-22.44-10.46-19.98-16.79-19.61-49.57,1.3-65.19,4.58-3.42,10.2-5.53,15.5-7.86,1.91-.84,2.97-1.48,3.31-3.73,6.26-42.23,44.01-70.98,86.07-65.24,20.39,2.78,37.08,12.56,49.68,28.91,2.36,3.06,4.54,4.53,8.71,4.55,29.52.17,53.92,21.49,58.34,50.52.12.76.49,1.47.74,2.21v13.58c-.25.59-.61,1.16-.72,1.78-4.15,23.5-17.47,39.39-39.78,47.66-3.93,1.46-8.12,2.2-12.2,3.27h-148.51Zm74.25-16.98c21.42,0,42.83.01,64.25-.02,2.65,0,5.32-.13,7.96-.42,18.52-2.01,34.61-17.35,37.14-35.35,2.84-20.21-7.75-39.04-26.15-46.32-6.65-2.64-13.53-3.93-20.69-2.57-5.81,1.1-10.19-.68-12.94-6.07-.42-.82-1.01-1.56-1.52-2.34-12.45-19.01-36.55-29.37-58.9-25.33-27.56,4.99-47.18,26.85-49.35,54.99-.77,10.06-2.22,11.56-12.12,12.57-16.78,1.71-27.25,21.22-19.47,36.43,5.22,10.2,13.97,14.44,25.12,14.43,22.22-.01,44.43,0,66.65,0Z" stroke-width="0"/><path d="m280.78,238.64c-21.4,0-42.8,0-64.2,0-7.82,0-11.98-3.01-11.96-8.6.02-5.59,4.16-8.55,12.01-8.55,43.07,0,86.14,0,129.21,0,7.82,0,11.98,3.01,11.96,8.6-.02,5.59-4.16,8.55-12,8.55-21.67,0-43.34,0-65,0Z" stroke-width="0"/><path d="m59.94,272.53c-14.15.11-25.63-11.28-25.63-25.45,0-13.94,11.25-25.32,25.25-25.53,13.84-.21,25.73,11.6,25.73,25.56,0,13.87-11.41,25.31-25.35,25.43Zm8.17-25.63c-.1-4.63-3.8-8.22-8.45-8.18-4.53.04-8.36,3.88-8.37,8.37,0,4.57,4.22,8.65,8.75,8.45,4.54-.2,8.16-4.07,8.06-8.64Z" stroke-width="0"/><path d="m59.73,374.76c-14.16-.01-25.53-11.51-25.4-25.67.13-13.94,11.6-25.36,25.46-25.31,13.86.04,25.29,11.42,25.5,25.37.21,13.92-11.47,25.63-25.56,25.62Zm-.16-33.81c-4.52.09-8.34,3.99-8.28,8.46.06,4.42,4.05,8.36,8.46,8.37,4.66,0,8.51-4.02,8.36-8.75-.14-4.63-3.88-8.17-8.54-8.07Z" stroke-width="0"/><path d="m281.23,136.41c-21.53,0-43.07,0-64.6,0-7.86,0-11.99-2.95-12.01-8.55-.03-5.59,4.14-8.61,11.95-8.61,43.07,0,86.14,0,129.21,0,7.85,0,11.99,2.95,12.01,8.55.02,5.59-4.14,8.6-11.95,8.6-21.53,0-43.07,0-64.6,0Z" stroke-width="0"/><path d="m281.2,170.37c-21.16,0-42.31,0-63.47,0-.93,0-1.86.01-2.79,0-6.43-.1-10.42-3.41-10.35-8.55.07-5.18,4.05-8.41,10.54-8.41,44.04-.02,88.08-.01,132.12.02,1.57,0,3.21.16,4.71.62,3.73,1.14,6.15,4.88,5.78,8.56-.4,3.87-3.24,6.97-7.09,7.54-1.57.23-3.18.23-4.78.23-21.55.01-43.11,0-64.66,0Z" stroke-width="0"/><path d="m59.88,170.31c-14.16.08-25.6-11.34-25.56-25.51.04-13.94,11.41-25.39,25.3-25.48,13.93-.09,25.69,11.64,25.67,25.62-.02,13.85-11.48,25.29-25.41,25.36Zm8.25-25.3c.06-4.65-3.51-8.37-8.14-8.49-4.71-.12-8.74,3.78-8.7,8.42.04,4.41,4.02,8.38,8.43,8.4,4.48.02,8.35-3.8,8.41-8.33Z" stroke-width="0"/></svg>